<svg width="27" height="27" viewBox="0 0 27 27" fill="none" xmlns="http://www.w3.org/2000/svg">
<g clip-path="url(#clip0_78915_12021)">
<path d="M17.2241 9.78214C16.8749 9.78214 16.5918 10.0652 16.5918 10.4145V22.3652C16.5918 22.7142 16.8749 22.9976 17.2241 22.9976C17.5734 22.9976 17.8564 22.7142 17.8564 22.3652V10.4145C17.8564 10.0652 17.5734 9.78214 17.2241 9.78214Z" fill="#26D07C"/>
<path d="M9.76318 9.78214C9.41392 9.78214 9.13086 10.0652 9.13086 10.4145V22.3652C9.13086 22.7142 9.41392 22.9976 9.76318 22.9976C10.1124 22.9976 10.3955 22.7142 10.3955 22.3652V10.4145C10.3955 10.0652 10.1124 9.78214 9.76318 9.78214Z" fill="#26D07C"/>
<path d="M4.32518 8.03808V23.617C4.32518 24.5378 4.66283 25.4026 5.25266 26.023C5.83977 26.6452 6.65685 26.9984 7.51196 26.9999H19.4756C20.3309 26.9984 21.148 26.6452 21.7349 26.023C22.3247 25.4026 22.6624 24.5378 22.6624 23.617V8.03808C23.8349 7.72687 24.5946 6.59413 24.4378 5.391C24.2807 4.18812 23.2559 3.2883 22.0426 3.28805H18.8052V2.49766C18.8089 1.83298 18.5461 1.19474 18.0756 0.725195C17.6051 0.255897 16.9658 -0.00542718 16.3012 6.78727e-06H10.6864C10.0217 -0.00542718 9.38248 0.255897 8.91194 0.725195C8.44141 1.19474 8.17861 1.83298 8.18231 2.49766V3.28805H4.9449C3.73164 3.2883 2.70684 4.18812 2.54975 5.391C2.39291 6.59413 3.15268 7.72687 4.32518 8.03808ZM19.4756 25.7353H7.51196C6.43084 25.7353 5.58981 24.8066 5.58981 23.617V8.09366H21.3977V23.617C21.3977 24.8066 20.5567 25.7353 19.4756 25.7353ZM9.44694 2.49766C9.44274 2.16841 9.57217 1.85151 9.80583 1.61908C10.0392 1.38666 10.3569 1.25896 10.6864 1.26464H16.3012C16.6307 1.25896 16.9483 1.38666 17.1817 1.61908C17.4154 1.85126 17.5448 2.16841 17.5406 2.49766V3.28805H9.44694V2.49766ZM4.9449 4.55269H22.0426C22.6713 4.55269 23.1808 5.06224 23.1808 5.69086C23.1808 6.31947 22.6713 6.82903 22.0426 6.82903H4.9449C4.31629 6.82903 3.80673 6.31947 3.80673 5.69086C3.80673 5.06224 4.31629 4.55269 4.9449 4.55269Z" fill="#26D07C"/>
<path d="M13.4936 9.78214C13.1444 9.78214 12.8613 10.0652 12.8613 10.4145V22.3652C12.8613 22.7142 13.1444 22.9976 13.4936 22.9976C13.8429 22.9976 14.126 22.7142 14.126 22.3652V10.4145C14.126 10.0652 13.8429 9.78214 13.4936 9.78214Z" fill="#26D07C"/>
</g>
<defs>
<clipPath id="clip0_78915_12021">
<rect width="27" height="27" fill="white"/>
</clipPath>
</defs>
</svg>
