<svg width="13" height="13" viewBox="0 0 13 13" fill="none" xmlns="http://www.w3.org/2000/svg">
<path d="M6.5 0.203125C3.02235 0.203125 0.203125 3.02232 0.203125 6.5C0.203125 9.97768 3.02235 12.7969 6.5 12.7969C9.97765 12.7969 12.7969 9.97765 12.7969 6.5C12.7969 3.02235 9.97768 0.203125 6.5 0.203125ZM9.80352 3.19648C11.4653 4.85824 11.5809 7.39814 10.3285 9.17945L3.82053 2.6715C5.60305 1.41832 8.14267 1.53565 9.80352 3.19648ZM3.19648 9.80352C1.53471 8.14176 1.41913 5.60186 2.67147 3.82055L9.17947 10.3285C7.39697 11.5817 4.85733 11.4644 3.19648 9.80352Z" fill="#C51917"/>
</svg>
