<svg width="20" height="20" viewBox="0 0 20 20" fill="none" xmlns="http://www.w3.org/2000/svg">
<path d="M19.4493 5.55151L17.6485 7.3523C17.4649 7.53589 17.168 7.53589 16.9844 7.3523L12.6485 3.01636C12.4649 2.83276 12.4649 2.53589 12.6485 2.3523L14.4493 0.551514C15.1797 -0.178955 16.3672 -0.178955 17.1016 0.551514L19.4493 2.89917C20.1836 3.62964 20.1836 4.81714 19.4493 5.55151ZM11.1016 3.89917L0.843801 14.157L0.015676 18.9031C-0.0976053 19.5437 0.460989 20.0984 1.10161 19.989L5.84771 19.157L16.1055 8.89917C16.2891 8.71558 16.2891 8.4187 16.1055 8.23511L11.7696 3.89917C11.5821 3.71558 11.2852 3.71558 11.1016 3.89917ZM4.84771 13.2781C4.63286 13.0632 4.63286 12.7195 4.84771 12.5046L10.8633 6.48901C11.0782 6.27417 11.4219 6.27417 11.6368 6.48901C11.8516 6.70386 11.8516 7.04761 11.6368 7.26245L5.62114 13.2781C5.4063 13.4929 5.06255 13.4929 4.84771 13.2781ZM3.43755 16.5632H5.31255V17.9812L2.79302 18.4226L1.57818 17.2078L2.01958 14.6882H3.43755V16.5632Z" fill="#002b49"/>
</svg>
